<?xml version="1.0" encoding="UTF-8"?>
<svg version="1.1" xmlns="http://www.w3.org/2000/svg" width="1000" height="1000">
<path d="M0 0 C2.97 0 5.94 0 9 0 C9 233.31 9 466.62 9 707 C-108.81 707 -226.62 707 -348 707 C-348 704.36 -348 701.72 -348 699 C-347.01 699 -346.02 699 -345 699 C-345 698.01 -345 697.02 -345 696 C-344.01 696 -343.02 696 -342 696 C-342 695.01 -342 694.02 -342 693 C-341.01 693 -340.02 693 -339 693 C-339 692.01 -339 691.02 -339 690 C-338.01 690 -337.02 690 -336 690 C-336 689.01 -336 688.02 -336 687 C-335.01 687 -334.02 687 -333 687 C-333 686.01 -333 685.02 -333 684 C-332.01 684 -331.02 684 -330 684 C-330 683.01 -330 682.02 -330 681 C-329.01 681 -328.02 681 -327 681 C-327 680.01 -327 679.02 -327 678 C-326.01 678 -325.02 678 -324 678 C-324 677.01 -324 676.02 -324 675 C-323.01 675 -322.02 675 -321 675 C-320.67 674.01 -320.34 673.02 -320 672 C-319.34 672 -318.68 672 -318 672 C-318 671.34 -318 670.68 -318 670 C-316.625 668.375 -316.625 668.375 -315 667 C-314.34 667 -313.68 667 -313 667 C-312.67 666.01 -312.34 665.02 -312 664 C-311.34 664 -310.68 664 -310 664 C-310 663.01 -310 662.02 -310 661 C-309.01 661 -308.02 661 -307 661 C-307 660.01 -307 659.02 -307 658 C-306.01 658 -305.02 658 -304 658 C-304 657.01 -304 656.02 -304 655 C-303.01 655 -302.02 655 -301 655 C-301 654.01 -301 653.02 -301 652 C-300.01 652 -299.02 652 -298 652 C-298 651.01 -298 650.02 -298 649 C-297.01 649 -296.02 649 -295 649 C-295 648.01 -295 647.02 -295 646 C-294.01 646 -293.02 646 -292 646 C-292 645.01 -292 644.02 -292 643 C-291.01 643 -290.02 643 -289 643 C-289 642.01 -289 641.02 -289 640 C-288.01 640 -287.02 640 -286 640 C-286 639.01 -286 638.02 -286 637 C-285.01 637 -284.02 637 -283 637 C-282.67 636.01 -282.34 635.02 -282 634 C-281.34 634 -280.68 634 -280 634 C-280 633.34 -280 632.68 -280 632 C-279.34 632 -278.68 632 -278 632 C-277.67 631.01 -277.34 630.02 -277 629 C-276.34 629 -275.68 629 -275 629 C-274.67 628.01 -274.34 627.02 -274 626 C-273.34 626 -272.68 626 -272 626 C-272 625.01 -272 624.02 -272 623 C-271.01 623 -270.02 623 -269 623 C-269 622.01 -269 621.02 -269 620 C-268.01 620 -267.02 620 -266 620 C-266 619.01 -266 618.02 -266 617 C-265.01 617 -264.02 617 -263 617 C-263 616.01 -263 615.02 -263 614 C-262.01 614 -261.02 614 -260 614 C-260 613.01 -260 612.02 -260 611 C-259.01 611 -258.02 611 -257 611 C-257 610.01 -257 609.02 -257 608 C-256.01 608 -255.02 608 -254 608 C-254 607.01 -254 606.02 -254 605 C-253.01 605 -252.02 605 -251 605 C-251 604.01 -251 603.02 -251 602 C-250.01 602 -249.02 602 -248 602 C-248 601.01 -248 600.02 -248 599 C-247.01 599 -246.02 599 -245 599 C-244.67 598.01 -244.34 597.02 -244 596 C-243.34 596 -242.68 596 -242 596 C-242 595.34 -242 594.68 -242 594 C-241.34 594 -240.68 594 -240 594 C-239.67 593.01 -239.34 592.02 -239 591 C-238.34 591 -237.68 591 -237 591 C-236.67 590.01 -236.34 589.02 -236 588 C-235.34 588 -234.68 588 -234 588 C-234 587.01 -234 586.02 -234 585 C-233.01 585 -232.02 585 -231 585 C-231 584.01 -231 583.02 -231 582 C-230.01 582 -229.02 582 -228 582 C-228 581.01 -228 580.02 -228 579 C-227.01 579 -226.02 579 -225 579 C-225 578.01 -225 577.02 -225 576 C-224.01 576 -223.02 576 -222 576 C-222 575.01 -222 574.02 -222 573 C-221.01 573 -220.02 573 -219 573 C-219 572.01 -219 571.02 -219 570 C-189.3 570 -159.6 570 -129 570 C-129 424.47 -129 278.94 -129 129 C-128.01 129 -127.02 129 -126 129 C-126 128.01 -126 127.02 -126 126 C-125.01 126 -124.02 126 -123 126 C-123 125.01 -123 124.02 -123 123 C-122.01 123 -121.02 123 -120 123 C-120 122.01 -120 121.02 -120 120 C-119.01 120 -118.02 120 -117 120 C-117 119.01 -117 118.02 -117 117 C-116.01 117 -115.02 117 -114 117 C-114 116.01 -114 115.02 -114 114 C-113.01 114 -112.02 114 -111 114 C-111 113.01 -111 112.02 -111 111 C-110.01 111 -109.02 111 -108 111 C-108 110.01 -108 109.02 -108 108 C-107.01 108 -106.02 108 -105 108 C-105 107.01 -105 106.02 -105 105 C-104.01 105 -103.02 105 -102 105 C-102 104.01 -102 103.02 -102 102 C-101.01 102 -100.02 102 -99 102 C-99 101.01 -99 100.02 -99 99 C-98.01 99 -97.02 99 -96 99 C-96 98.01 -96 97.02 -96 96 C-95.01 96 -94.02 96 -93 96 C-93 95.34 -93 94.68 -93 94 C-92.34 94 -91.68 94 -91 94 C-91 93.01 -91 92.02 -91 91 C-90.01 91 -89.02 91 -88 91 C-88 90.01 -88 89.02 -88 88 C-87.01 88 -86.02 88 -85 88 C-85 87.01 -85 86.02 -85 85 C-84.01 85 -83.02 85 -82 85 C-82 84.01 -82 83.02 -82 82 C-81.01 82 -80.02 82 -79 82 C-79 81.01 -79 80.02 -79 79 C-78.01 79 -77.02 79 -76 79 C-76 78.01 -76 77.02 -76 76 C-75.01 76 -74.02 76 -73 76 C-73 75.01 -73 74.02 -73 73 C-72.01 73 -71.02 73 -70 73 C-70 72.01 -70 71.02 -70 70 C-69.01 70 -68.02 70 -67 70 C-67 69.01 -67 68.02 -67 67 C-66.01 67 -65.02 67 -64 67 C-64 66.01 -64 65.02 -64 64 C-63.01 64 -62.02 64 -61 64 C-61 63.01 -61 62.02 -61 61 C-60.01 61 -59.02 61 -58 61 C-57.67 60.01 -57.34 59.02 -57 58 C-56.34 58 -55.68 58 -55 58 C-55 57.34 -55 56.68 -55 56 C-54.34 56 -53.68 56 -53 56 C-52.67 55.01 -52.34 54.02 -52 53 C-51.34 53 -50.68 53 -50 53 C-50 52.01 -50 51.02 -50 50 C-49.01 50 -48.02 50 -47 50 C-47 49.01 -47 48.02 -47 47 C-46.01 47 -45.02 47 -44 47 C-44 46.01 -44 45.02 -44 44 C-43.01 44 -42.02 44 -41 44 C-41 43.01 -41 42.02 -41 41 C-40.01 41 -39.02 41 -38 41 C-38 40.01 -38 39.02 -38 38 C-37.01 38 -36.02 38 -35 38 C-35 37.01 -35 36.02 -35 35 C-34.01 35 -33.02 35 -32 35 C-32 34.01 -32 33.02 -32 32 C-31.01 32 -30.02 32 -29 32 C-29 31.01 -29 30.02 -29 29 C-28.01 29 -27.02 29 -26 29 C-26 28.01 -26 27.02 -26 26 C-25.01 26 -24.02 26 -23 26 C-22.67 25.01 -22.34 24.02 -22 23 C-21.34 23 -20.68 23 -20 23 C-20 22.34 -20 21.68 -20 21 C-18.625 19.375 -18.625 19.375 -17 18 C-16.34 18 -15.68 18 -15 18 C-14.67 17.01 -14.34 16.02 -14 15 C-13.34 15 -12.68 15 -12 15 C-11.67 14.01 -11.34 13.02 -11 12 C-10.34 12 -9.68 12 -9 12 C-8.67 11.01 -8.34 10.02 -8 9 C-7.34 9 -6.68 9 -6 9 C-5.67 8.01 -5.34 7.02 -5 6 C-4.34 6 -3.68 6 -3 6 C-3 5.01 -3 4.02 -3 3 C-2.01 3 -1.02 3 0 3 C0 2.01 0 1.02 0 0 Z " fill="#4285F3" transform="translate(843,148)"/>
<path d="M0 0 C116.49 0 232.98 0 353 0 C354.07349791 4.29399165 353.79682816 5.19495213 352 9 C351.34 9 350.68 9 350 9 C350 9.66 350 10.32 350 11 C348.6875 12.625 348.6875 12.625 347 14 C346.01 14 345.02 14 344 14 C344 14.99 344 15.98 344 17 C343.01 17 342.02 17 341 17 C341 17.99 341 18.98 341 20 C340.01 20 339.02 20 338 20 C338 20.99 338 21.98 338 23 C336.625 24.6875 336.625 24.6875 335 26 C334.34 26 333.68 26 333 26 C332.67 26.99 332.34 27.98 332 29 C331.34 29 330.68 29 330 29 C329.67 29.99 329.34 30.98 329 32 C328.34 32 327.68 32 327 32 C326.67 32.99 326.34 33.98 326 35 C325.34 35 324.68 35 324 35 C323.67 35.99 323.34 36.98 323 38 C322.34 38 321.68 38 321 38 C320.67 38.99 320.34 39.98 320 41 C319.34 41 318.68 41 318 41 C317.67 41.99 317.34 42.98 317 44 C316.34 44 315.68 44 315 44 C315 44.66 315 45.32 315 46 C313.34997172 47.35386936 311.6825613 48.68678142 310 50 C309.67 50.66 309.34 51.32 309 52 C308.01 52 307.02 52 306 52 C306 52.99 306 53.98 306 55 C305.01 55 304.02 55 303 55 C303 55.99 303 56.98 303 58 C302.01 58 301.02 58 300 58 C300 58.99 300 59.98 300 61 C298.37064759 62.37868281 296.70250393 63.71274093 295 65 C294.67 65.66 294.34 66.32 294 67 C293.34 67 292.68 67 292 67 C291.67 67.99 291.34 68.98 291 70 C290.34 70 289.68 70 289 70 C288.67 70.99 288.34 71.98 288 73 C287.34 73 286.68 73 286 73 C285.67 73.99 285.34 74.98 285 76 C284.34 76 283.68 76 283 76 C282.67 76.99 282.34 77.98 282 79 C281.34 79 280.68 79 280 79 C279.67 79.99 279.34 80.98 279 82 C278.34 82 277.68 82 277 82 C277 82.66 277 83.32 277 84 C275.6875 85.625 275.6875 85.625 274 87 C273.01 87 272.02 87 271 87 C271 87.99 271 88.98 271 90 C270.01 90 269.02 90 268 90 C268 90.99 268 91.98 268 93 C267.01 93 266.02 93 265 93 C265 93.99 265 94.98 265 96 C264.01 96 263.02 96 262 96 C262 96.99 262 97.98 262 99 C260.37064759 100.37868281 258.70250393 101.71274093 257 103 C256.67 103.66 256.34 104.32 256 105 C255.34 105 254.68 105 254 105 C253.67 105.99 253.34 106.98 253 108 C252.34 108 251.68 108 251 108 C250.67 108.99 250.34 109.98 250 111 C249.34 111 248.68 111 248 111 C247.67 111.99 247.34 112.98 247 114 C246.34 114 245.68 114 245 114 C244.67 114.99 244.34 115.98 244 117 C243.34 117 242.68 117 242 117 C242 117.66 242 118.32 242 119 C240.34997172 120.35386936 238.6825613 121.68678142 237 123 C236.67 123.66 236.34 124.32 236 125 C235.01 125 234.02 125 233 125 C233 125.99 233 126.98 233 128 C232.01 128 231.02 128 230 128 C230 128.99 230 129.98 230 131 C229.01 131 228.02 131 227 131 C227 131.99 227 132.98 227 134 C222.38 134 217.76 134 213 134 C213 134.99 213 135.98 213 137 C187.92 137 162.84 137 137 137 C137.00523682 142.98116943 137.01047363 148.96233887 137.01586914 155.12475586 C137.03242994 174.87411033 137.04353215 194.62346507 137.05181217 214.37282467 C137.05696647 226.34824414 137.06399269 238.32365702 137.07543945 250.29907227 C137.08541272 260.73793005 137.09185973 271.17678306 137.09408849 281.61564547 C137.0953911 287.1419166 137.09844855 292.66817409 137.10573006 298.19444084 C137.11253195 303.3990135 137.11460847 308.60356694 137.11310768 313.80814362 C137.11338213 315.71524472 137.11536247 317.62234649 137.11920547 319.52944374 C137.1242079 322.1406191 137.12297426 324.75172263 137.12025452 327.36289978 C137.12316736 328.11098292 137.1260802 328.85906606 137.12908131 329.62981838 C137.08909575 343.91090425 137.08909575 343.91090425 135 346 C134.88957873 348.9832198 134.84502545 351.94378312 134.84178162 354.9278717 C134.83684364 355.87611028 134.83190566 356.82434885 134.82681805 357.80132192 C134.81136137 361.00434621 134.80306044 364.20735033 134.79467773 367.41040039 C134.78510562 369.69623494 134.77509595 371.9820677 134.76467896 374.26789856 C134.73755155 380.49490205 134.71658455 386.72191318 134.69667697 392.94894338 C134.67486557 399.44859679 134.64745326 405.94822644 134.62062073 412.44786072 C134.5763159 423.36407452 134.53549182 434.28029631 134.49731445 445.1965332 C134.4579751 456.44231111 134.41655265 467.68807814 134.37231445 478.93383789 C134.36822804 479.97291827 134.36822804 479.97291827 134.36405908 481.03299017 C134.35037986 484.5080242 134.33665954 487.98305807 134.32291877 491.45809186 C134.20890585 520.30537172 134.10218098 549.1526759 134 578 C133.01 578.33 132.02 578.66 131 579 C130.67 579.99 130.34 580.98 130 582 C129.34 582 128.68 582 128 582 C128 582.66 128 583.32 128 584 C126.6875 585.625 126.6875 585.625 125 587 C124.01 587 123.02 587 122 587 C122 587.99 122 588.98 122 590 C121.01 590 120.02 590 119 590 C119 590.99 119 591.98 119 593 C118.01 593 117.02 593 116 593 C116 593.99 116 594.98 116 596 C114.625 597.6875 114.625 597.6875 113 599 C112.34 599 111.68 599 111 599 C110.67 599.99 110.34 600.98 110 602 C109.34 602 108.68 602 108 602 C107.67 602.99 107.34 603.98 107 605 C106.34 605 105.68 605 105 605 C104.67 605.99 104.34 606.98 104 608 C103.34 608 102.68 608 102 608 C101.67 608.99 101.34 609.98 101 611 C100.34 611 99.68 611 99 611 C98.67 611.99 98.34 612.98 98 614 C97.34 614 96.68 614 96 614 C95.67 614.99 95.34 615.98 95 617 C94.34 617 93.68 617 93 617 C92.67 617.99 92.34 618.98 92 620 C91.34 620 90.68 620 90 620 C89.67 620.99 89.34 621.98 89 623 C88.34 623 87.68 623 87 623 C87 623.66 87 624.32 87 625 C85.6875 626.625 85.6875 626.625 84 628 C83.01 628 82.02 628 81 628 C81 628.99 81 629.98 81 631 C80.01 631 79.02 631 78 631 C78 631.99 78 632.98 78 634 C77.34 634 76.68 634 76 634 C75.67 634.99 75.34 635.98 75 637 C74.34 637 73.68 637 73 637 C72.67 637.99 72.34 638.98 72 640 C71.34 640 70.68 640 70 640 C70 640.99 70 641.98 70 643 C69.01 643 68.02 643 67 643 C67 643.99 67 644.98 67 646 C66.01 646 65.02 646 64 646 C64 646.99 64 647.98 64 649 C63.01 649 62.02 649 61 649 C61 649.99 61 650.98 61 652 C60.01 652 59.02 652 58 652 C58 652.99 58 653.98 58 655 C57.01 655 56.02 655 55 655 C55 655.99 55 656.98 55 658 C54.01 658 53.02 658 52 658 C51.67 658.99 51.34 659.98 51 661 C50.34 661 49.68 661 49 661 C48.67 661.99 48.34 662.98 48 664 C47.34 664 46.68 664 46 664 C46 664.66 46 665.32 46 666 C45.01 666 44.02 666 43 666 C43 666.99 43 667.98 43 669 C41.625 670.6875 41.625 670.6875 40 672 C39.34 672 38.68 672 38 672 C37.67 672.99 37.34 673.98 37 675 C36.34 675 35.68 675 35 675 C35 675.99 35 676.98 35 678 C34.01 678 33.02 678 32 678 C32 678.99 32 679.98 32 681 C31.01 681 30.02 681 29 681 C29 681.99 29 682.98 29 684 C28.01 684 27.02 684 26 684 C26 684.99 26 685.98 26 687 C25.01 687 24.02 687 23 687 C23 687.99 23 688.98 23 690 C22.01 690 21.02 690 20 690 C20 690.99 20 691.98 20 693 C19.01 693 18.02 693 17 693 C17 693.99 17 694.98 17 696 C16.01 696 15.02 696 14 696 C14 696.99 14 697.98 14 699 C13.01 699 12.02 699 11 699 C10.67 699.99 10.34 700.98 10 702 C9.34 702 8.68 702 8 702 C8 702.66 8 703.32 8 704 C7.01 704 6.02 704 5 704 C5 704.99 5 705.98 5 707 C3.35 707 1.7 707 0 707 C0 473.69 0 240.38 0 0 Z " fill="#4184F4" transform="translate(145,148)"/>
<path d="M0 0 C1.50433594 0.01353516 1.50433594 0.01353516 3.0390625 0.02734375 C3.80992187 0.03894531 4.58078125 0.05054688 5.375 0.0625 C5.87 1.0525 5.87 1.0525 6.375 2.0625 C9.65055608 2.53251033 9.65055608 2.53251033 13.4375 2.6875 C15.37302734 2.79964844 15.37302734 2.79964844 17.34765625 2.9140625 C18.84619141 2.98753906 18.84619141 2.98753906 20.375 3.0625 C20.375 4.0525 20.375 5.0425 20.375 6.0625 C23.345 6.0625 26.315 6.0625 29.375 6.0625 C29.375 7.0525 29.375 8.0425 29.375 9.0625 C31.355 9.0625 33.335 9.0625 35.375 9.0625 C35.375 10.0525 35.375 11.0425 35.375 12.0625 C37.025 12.0625 38.675 12.0625 40.375 12.0625 C40.87 13.0525 40.87 13.0525 41.375 14.0625 C42.365 14.3925 43.355 14.7225 44.375 15.0625 C44.375 16.0525 44.375 17.0425 44.375 18.0625 C46.025 18.0625 47.675 18.0625 49.375 18.0625 C49.375 19.0525 49.375 20.0425 49.375 21.0625 C50.365 21.0625 51.355 21.0625 52.375 21.0625 C52.375 21.7225 52.375 22.3825 52.375 23.0625 C53.365 23.0625 54.355 23.0625 55.375 23.0625 C55.375 24.0525 55.375 25.0425 55.375 26.0625 C57.355 26.3925 59.335 26.7225 61.375 27.0625 C61.375 27.7225 61.375 28.3825 61.375 29.0625 C62.365 29.3925 63.355 29.7225 64.375 30.0625 C64.375 30.7225 64.375 31.3825 64.375 32.0625 C65.365 32.0625 66.355 32.0625 67.375 32.0625 C67.375 33.0525 67.375 34.0425 67.375 35.0625 C68.365 35.0625 69.355 35.0625 70.375 35.0625 C70.375 36.0525 70.375 37.0425 70.375 38.0625 C72.025 38.3925 73.675 38.7225 75.375 39.0625 C75.375 39.7225 75.375 40.3825 75.375 41.0625 C76.365 41.0625 77.355 41.0625 78.375 41.0625 C80.5625 42.9375 80.5625 42.9375 82.375 45.0625 C82.375 45.7225 82.375 46.3825 82.375 47.0625 C83.365 47.3925 84.355 47.7225 85.375 48.0625 C85.375 48.7225 85.375 49.3825 85.375 50.0625 C86.035 50.0625 86.695 50.0625 87.375 50.0625 C87.375 51.0525 87.375 52.0425 87.375 53.0625 C87.931875 53.18625 88.48875 53.31 89.0625 53.4375 C91.59614364 54.12226855 93.95421032 55.05383763 96.375 56.0625 C96.375 57.0525 96.375 58.0425 96.375 59.0625 C97.365 59.0625 98.355 59.0625 99.375 59.0625 C99.375 59.7225 99.375 60.3825 99.375 61.0625 C100.365 61.3925 101.355 61.7225 102.375 62.0625 C102.375 62.7225 102.375 63.3825 102.375 64.0625 C105.345 64.5575 105.345 64.5575 108.375 65.0625 C108.375 65.7225 108.375 66.3825 108.375 67.0625 C110.025 67.3925 111.675 67.7225 113.375 68.0625 C113.375 68.7225 113.375 69.3825 113.375 70.0625 C115.355 70.0625 117.335 70.0625 119.375 70.0625 C119.705 71.0525 120.035 72.0425 120.375 73.0625 C124.005 73.0625 127.635 73.0625 131.375 73.0625 C131.705 72.0725 132.035 71.0825 132.375 70.0625 C134.355 70.0625 136.335 70.0625 138.375 70.0625 C138.375 69.4025 138.375 68.7425 138.375 68.0625 C140.85 67.5675 140.85 67.5675 143.375 67.0625 C143.705 66.0725 144.035 65.0825 144.375 64.0625 C146.3359375 62.6328125 146.3359375 62.6328125 148.75 61.1875 C152.41749911 58.86261942 154.40236097 57.00777806 156.375 53.0625 C157.035 53.0625 157.695 53.0625 158.375 53.0625 C158.375 52.0725 158.375 51.0825 158.375 50.0625 C159.365 50.0625 160.355 50.0625 161.375 50.0625 C161.375 49.0725 161.375 48.0825 161.375 47.0625 C162.75 45.375 162.75 45.375 164.375 44.0625 C165.035 44.0625 165.695 44.0625 166.375 44.0625 C166.705 42.4125 167.035 40.7625 167.375 39.0625 C168.035 39.0625 168.695 39.0625 169.375 39.0625 C169.705 37.7425 170.035 36.4225 170.375 35.0625 C171.035 35.0625 171.695 35.0625 172.375 35.0625 C172.705 33.4125 173.035 31.7625 173.375 30.0625 C174.035 30.0625 174.695 30.0625 175.375 30.0625 C175.705 28.7425 176.035 27.4225 176.375 26.0625 C177.035 26.0625 177.695 26.0625 178.375 26.0625 C178.375 24.4125 178.375 22.7625 178.375 21.0625 C179.365 21.0625 180.355 21.0625 181.375 21.0625 C181.375 19.0825 181.375 17.1025 181.375 15.0625 C182.365 15.0625 183.355 15.0625 184.375 15.0625 C184.375 13.0825 184.375 11.1025 184.375 9.0625 C185.365 9.0625 186.355 9.0625 187.375 9.0625 C187.375 7.0825 187.375 5.1025 187.375 3.0625 C188.365 3.0625 189.355 3.0625 190.375 3.0625 C190.375 2.0725 190.375 1.0825 190.375 0.0625 C192.025 0.0625 193.675 0.0625 195.375 0.0625 C196.59001158 2.49252317 196.49816211 4.02909025 196.49525452 6.74478149 C196.49731651 8.22558952 196.49731651 8.22558952 196.49942017 9.73631287 C196.49582489 10.82315872 196.49222961 11.91000458 196.48852539 13.02978516 C196.48867142 14.17124496 196.48881744 15.31270477 196.4889679 16.48875427 C196.48826906 20.27637609 196.48047798 24.06394923 196.47265625 27.8515625 C196.47079197 30.47187269 196.46936811 33.09218323 196.46836853 35.7124939 C196.46525752 41.91377161 196.45704722 48.11503174 196.44701904 54.3163017 C196.43585078 61.37546163 196.43034565 68.43462239 196.42532361 75.49378896 C196.41486443 90.01670172 196.39726942 104.53960061 196.375 119.0625 C194.89 119.5575 194.89 119.5575 193.375 120.0625 C193.375 121.7125 193.375 123.3625 193.375 125.0625 C191.89 125.5575 191.89 125.5575 190.375 126.0625 C190.375 127.7125 190.375 129.3625 190.375 131.0625 C189.715 131.3925 189.055 131.7225 188.375 132.0625 C187.25275145 133.94263106 187.25275145 133.94263106 186.25 136.125 C185.72019531 137.22521484 185.72019531 137.22521484 185.1796875 138.34765625 C184.91414063 138.91355469 184.64859375 139.47945312 184.375 140.0625 C183.385 140.0625 182.395 140.0625 181.375 140.0625 C181.375 141.7125 181.375 143.3625 181.375 145.0625 C180.385 145.3925 179.395 145.7225 178.375 146.0625 C178.375 147.0525 178.375 148.0425 178.375 149.0625 C177.385 149.0625 176.395 149.0625 175.375 149.0625 C175.375 150.0525 175.375 151.0425 175.375 152.0625 C174.385 152.0625 173.395 152.0625 172.375 152.0625 C172.375 153.0525 172.375 154.0425 172.375 155.0625 C170.5 157.25 170.5 157.25 168.375 159.0625 C167.715 159.0625 167.055 159.0625 166.375 159.0625 C166.313125 159.64 166.25125 160.2175 166.1875 160.8125 C165.04115826 163.98698483 163.11543158 165.19098575 160.375 167.0625 C159.715 167.0625 159.055 167.0625 158.375 167.0625 C158.045 168.0525 157.715 169.0425 157.375 170.0625 C152.15277778 173.0625 152.15277778 173.0625 149.375 173.0625 C149.375 173.7225 149.375 174.3825 149.375 175.0625 C146.405 175.0625 143.435 175.0625 140.375 175.0625 C140.375 176.0525 140.375 177.0425 140.375 178.0625 C127.835 178.0625 115.295 178.0625 102.375 178.0625 C102.045 177.0725 101.715 176.0825 101.375 175.0625 C98.735 175.0625 96.095 175.0625 93.375 175.0625 C93.375 174.4025 93.375 173.7425 93.375 173.0625 C91.725 172.7325 90.075 172.4025 88.375 172.0625 C88.375 171.4025 88.375 170.7425 88.375 170.0625 C86.395 169.7325 84.415 169.4025 82.375 169.0625 C82.375 168.4025 82.375 167.7425 82.375 167.0625 C81.385 167.0625 80.395 167.0625 79.375 167.0625 C79.375 166.0725 79.375 165.0825 79.375 164.0625 C78.385 164.0625 77.395 164.0625 76.375 164.0625 C76.375 163.0725 76.375 162.0825 76.375 161.0625 C74.725 161.0625 73.075 161.0625 71.375 161.0625 C71.045 160.0725 70.715 159.0825 70.375 158.0625 C69.385 158.0625 68.395 158.0625 67.375 158.0625 C67.375 157.0725 67.375 156.0825 67.375 155.0625 C66.385 155.0625 65.395 155.0625 64.375 155.0625 C64.375 154.0725 64.375 153.0825 64.375 152.0625 C63.385 152.0625 62.395 152.0625 61.375 152.0625 C61.375 151.0725 61.375 150.0825 61.375 149.0625 C60.385 149.0625 59.395 149.0625 58.375 149.0625 C58.375 148.0725 58.375 147.0825 58.375 146.0625 C57.7975 145.93875 57.22 145.815 56.625 145.6875 C54.35164233 145.05601176 52.4496471 144.17391809 50.375 143.0625 C50.375 142.0725 50.375 141.0825 50.375 140.0625 C49.385 140.0625 48.395 140.0625 47.375 140.0625 C47.375 139.0725 47.375 138.0825 47.375 137.0625 C46.385 137.0625 45.395 137.0625 44.375 137.0625 C42.6875 135.6875 42.6875 135.6875 41.375 134.0625 C41.375 133.4025 41.375 132.7425 41.375 132.0625 C40.385 132.0625 39.395 132.0625 38.375 132.0625 C38.375 131.0725 38.375 130.0825 38.375 129.0625 C37.385 129.0625 36.395 129.0625 35.375 129.0625 C35.375 128.0725 35.375 127.0825 35.375 126.0625 C34.6325 125.959375 33.89 125.85625 33.125 125.75 C30.1776481 125.01316203 28.59116926 124.11450858 26.375 122.0625 C26.375 121.4025 26.375 120.7425 26.375 120.0625 C25.385 120.0625 24.395 120.0625 23.375 120.0625 C23.375 119.0725 23.375 118.0825 23.375 117.0625 C21.725 117.0625 20.075 117.0625 18.375 117.0625 C18.045 116.0725 17.715 115.0825 17.375 114.0625 C15.725 114.0625 14.075 114.0625 12.375 114.0625 C12.375 113.0725 12.375 112.0825 12.375 111.0625 C9.735 111.0625 7.095 111.0625 4.375 111.0625 C4.045 110.0725 3.715 109.0825 3.375 108.0625 C-1.575 108.0625 -6.525 108.0625 -11.625 108.0625 C-11.625 109.0525 -11.625 110.0425 -11.625 111.0625 C-13.605 111.0625 -15.585 111.0625 -17.625 111.0625 C-17.625 112.0525 -17.625 113.0425 -17.625 114.0625 C-19.605 114.0625 -21.585 114.0625 -23.625 114.0625 C-23.625 115.0525 -23.625 116.0425 -23.625 117.0625 C-24.615 117.0625 -25.605 117.0625 -26.625 117.0625 C-26.625 118.0525 -26.625 119.0425 -26.625 120.0625 C-27.615 120.0625 -28.605 120.0625 -29.625 120.0625 C-30.12 121.5475 -30.12 121.5475 -30.625 123.0625 C-31.285 123.0625 -31.945 123.0625 -32.625 123.0625 C-32.625 123.7225 -32.625 124.3825 -32.625 125.0625 C-33.285 125.0625 -33.945 125.0625 -34.625 125.0625 C-34.91375 125.660625 -35.2025 126.25875 -35.5 126.875 C-36.625 129.0625 -36.625 129.0625 -38.625 132.0625 C-39.285 132.0625 -39.945 132.0625 -40.625 132.0625 C-40.955 133.0525 -41.285 134.0425 -41.625 135.0625 C-42.285 135.0625 -42.945 135.0625 -43.625 135.0625 C-43.625 136.7125 -43.625 138.3625 -43.625 140.0625 C-44.615 140.0625 -45.605 140.0625 -46.625 140.0625 C-46.625 141.0525 -46.625 142.0425 -46.625 143.0625 C-47.615 143.0625 -48.605 143.0625 -49.625 143.0625 C-49.625 145.0425 -49.625 147.0225 -49.625 149.0625 C-50.615 149.0625 -51.605 149.0625 -52.625 149.0625 C-52.625 150.7125 -52.625 152.3625 -52.625 154.0625 C-53.615 154.3925 -54.605 154.7225 -55.625 155.0625 C-55.625 156.0525 -55.625 157.0425 -55.625 158.0625 C-56.615 158.0625 -57.605 158.0625 -58.625 158.0625 C-58.625 160.0425 -58.625 162.0225 -58.625 164.0625 C-59.615 164.0625 -60.605 164.0625 -61.625 164.0625 C-61.625 166.0425 -61.625 168.0225 -61.625 170.0625 C-62.285 170.0625 -62.945 170.0625 -63.625 170.0625 C-63.955 171.7125 -64.285 173.3625 -64.625 175.0625 C-65.285 175.0625 -65.945 175.0625 -66.625 175.0625 C-66.955 177.0425 -67.285 179.0225 -67.625 181.0625 C-69.275 180.7325 -70.925 180.4025 -72.625 180.0625 C-72.625 141.1225 -72.625 102.1825 -72.625 62.0625 C-71.635 61.5675 -71.635 61.5675 -70.625 61.0625 C-69.96944881 58.53516765 -69.96944881 58.53516765 -69.625 56.0625 C-68.635 56.0625 -67.645 56.0625 -66.625 56.0625 C-66.625 54.0825 -66.625 52.1025 -66.625 50.0625 C-65.635 50.0625 -64.645 50.0625 -63.625 50.0625 C-63.625 48.0825 -63.625 46.1025 -63.625 44.0625 C-62.965 44.0625 -62.305 44.0625 -61.625 44.0625 C-61.13 41.0925 -61.13 41.0925 -60.625 38.0625 C-59.965 38.0625 -59.305 38.0625 -58.625 38.0625 C-58.295 37.0725 -57.965 36.0825 -57.625 35.0625 C-56.965 35.0625 -56.305 35.0625 -55.625 35.0625 C-55.295 33.4125 -54.965 31.7625 -54.625 30.0625 C-53.965 30.0625 -53.305 30.0625 -52.625 30.0625 C-52.295 28.7425 -51.965 27.4225 -51.625 26.0625 C-50.965 26.0625 -50.305 26.0625 -49.625 26.0625 C-49.625 25.4025 -49.625 24.7425 -49.625 24.0625 C-48.3125 22.4375 -48.3125 22.4375 -46.625 21.0625 C-45.635 21.0625 -44.645 21.0625 -43.625 21.0625 C-43.625 20.0725 -43.625 19.0825 -43.625 18.0625 C-42.635 18.0625 -41.645 18.0625 -40.625 18.0625 C-40.625 17.0725 -40.625 16.0825 -40.625 15.0625 C-39.635 15.0625 -38.645 15.0625 -37.625 15.0625 C-37.625 14.0725 -37.625 13.0825 -37.625 12.0625 C-35.645 12.0625 -33.665 12.0625 -31.625 12.0625 C-31.625 11.0725 -31.625 10.0825 -31.625 9.0625 C-27.76743493 6.90944043 -25.07370215 5.66996746 -20.625 6.0625 C-20.295 5.0725 -19.965 4.0825 -19.625 3.0625 C-15.665 3.0625 -11.705 3.0625 -7.625 3.0625 C-7.625 2.4025 -7.625 1.7425 -7.625 1.0625 C-4.98041621 -0.25979189 -2.94738699 -0.03427194 0 0 Z " fill="#4285F4" transform="translate(436.625,410.9375)"/>
<path d="M0 0 C0.99 0 1.98 0 3 0 C3.02891546 4.45831982 3.04676981 8.91661569 3.0625 13.375 C3.07087891 14.64601563 3.07925781 15.91703125 3.08789062 17.2265625 C3.09111328 18.43828125 3.09433594 19.65 3.09765625 20.8984375 C3.10289307 22.01911621 3.10812988 23.13979492 3.11352539 24.29443359 C3 27 3 27 2 29 C1.34 29 0.68 29 0 29 C0 19.43 0 9.86 0 0 Z " fill="#4689FE" transform="translate(279,457)"/>
</svg>
